<?xml version="1.0" encoding="UTF-8" standalone="no"?>
<!-- Created with Inkscape (http://www.inkscape.org/) -->

<svg
   width="210mm"
   height="297mm"
   viewBox="0 0 210 297"
   version="1.1"
   id="svg5"
   inkscape:version="1.2.2 (732a01da63, 2022-12-09)"
   sodipodi:docname="bat.svg"
   xmlns:inkscape="http://www.inkscape.org/namespaces/inkscape"
   xmlns:sodipodi="http://sodipodi.sourceforge.net/DTD/sodipodi-0.dtd"
   xmlns="http://www.w3.org/2000/svg"
   xmlns:svg="http://www.w3.org/2000/svg">
  <sodipodi:namedview
     id="namedview7"
     pagecolor="#ffffff"
     bordercolor="#000000"
     borderopacity="0.25"
     inkscape:showpageshadow="2"
     inkscape:pageopacity="0.0"
     inkscape:pagecheckerboard="0"
     inkscape:deskcolor="#d1d1d1"
     inkscape:document-units="mm"
     showgrid="false"
     inkscape:zoom="0.65134574"
     inkscape:cx="353.88272"
     inkscape:cy="472.86715"
     inkscape:window-width="1366"
     inkscape:window-height="697"
     inkscape:window-x="-8"
     inkscape:window-y="-8"
     inkscape:window-maximized="1"
     inkscape:current-layer="layer1" />
  <defs
     id="defs2" />
  <g
     inkscape:label="Camada 1"
     inkscape:groupmode="layer"
     id="layer1">
    <path
       style="fill:#000000;stroke:#000000;stroke-width:1.465"
       id="path3036"
       d="m 73.821088,190.82084 c -0.0041,-0.32503 -0.02753,-0.6504 -0.0122,-0.97509 0.120877,-2.55989 0.788974,-5.15034 1.742744,-7.52001 0.31346,-0.7788 0.701537,-1.52544 1.052306,-2.28817 1.705248,-3.13067 3.734737,-6.12336 6.395953,-8.51865 0.343268,-0.19712 0.879792,-0.85367 1.373671,-0.70324 0.113435,0.0345 0.381419,0.27663 0.273508,0.22747 -0.982025,-0.44736 -1.851382,-1.19819 -2.906024,-1.42672 -0.31899,-0.0691 0.276619,0.59128 0.414927,0.88691 1.01713,2.85105 1.65676,5.8249 2.271715,8.78447 0.415338,1.75157 0.607857,3.54147 0.884598,5.31664 0.236725,1.44437 0.561527,2.87011 1.002006,4.26569 0.855067,2.59823 0.858869,2.53087 4.392628,3.96241 0.153204,0.0621 0.225325,-0.24191 0.337984,-0.36287 1.121646,-2.28669 2.155817,-4.61707 3.21732,-6.93267 1.140944,-2.586 2.309924,-5.16868 3.753967,-7.602 0.460803,-0.73591 1.013735,-1.4255 1.753076,-1.89777 0.07032,-0.0449 0.580763,-0.31402 0.678113,-0.36566 0.60207,-0.36385 1.22859,-0.69544 1.79234,-1.11735 0.22586,-0.1459 0.8172,-0.87449 1.10635,-0.7002 0.0781,0.0471 0.12511,0.13254 0.18767,0.19881 -0.99221,-0.54439 -1.94754,-1.16217 -2.97661,-1.63316 -0.19102,-0.0874 0.29593,0.29958 0.42499,0.46533 0.18785,0.24125 0.36419,0.49223 0.52371,0.75308 0.68187,1.11501 1.19775,2.33114 1.72702,3.52183 1.33477,3.04281 2.62504,6.10422 3.82716,9.20196 0.52545,1.46193 0.28677,0.76589 0.72216,2.08602 0,0 3.2665,1.5227 3.2665,1.5227 v 0 c -0.55052,-1.37869 -0.25641,-0.65356 -0.88502,-2.17428 -1.27847,-3.06198 -2.58596,-6.11189 -3.80321,-9.19914 -0.48128,-1.16745 -0.95103,-2.3495 -1.51088,-3.48265 -0.0306,-0.0619 -0.57445,-1.1215 -0.74946,-1.24175 -1.16748,-0.80224 -2.41146,-1.48704 -3.61719,-2.23056 -0.11324,-0.009 -0.22732,-0.0429 -0.33975,-0.0266 -0.447839,0.0648 -0.804664,0.63888 -1.175477,0.86259 -0.565426,0.39936 -1.159545,0.75313 -1.762726,1.09223 -1.035158,0.67774 -1.772563,1.43204 -2.316342,2.57134 -1.240412,2.55297 -2.365185,5.1598 -3.561842,7.7333 -0.774444,1.60823 -0.59422,1.25207 -1.380456,2.815 -0.551106,1.09552 -1.077642,2.21788 -1.778701,3.22887 -0.121687,0.17548 -0.265996,0.33414 -0.398994,0.50122 -1.312648,0.54303 -0.354523,0.0845 2.909281,1.9799 0.104482,0.0607 -0.193103,-0.15041 -0.264332,-0.248 -0.3679,-0.50408 -0.510026,-1.15243 -0.759275,-1.71195 -0.08542,-0.24838 -0.180607,-0.4936 -0.256254,-0.74513 -0.339084,-1.12745 -0.471231,-2.30099 -0.722304,-3.4479 -0.339291,-1.8249 -0.652116,-3.65799 -1.124112,-5.45437 -0.716383,-2.91696 -1.405461,-5.84003 -2.106295,-8.76058 -0.08745,-0.30101 -0.02678,-0.69622 -0.262337,-0.90301 -1.087395,-0.9546 -2.347108,-1.69651 -3.573507,-2.46439 -0.115869,-0.0725 -0.274384,-0.0526 -0.409083,-0.0292 -0.541351,0.0939 -0.93086,0.65427 -1.299729,0.98995 -2.31975,2.72415 -4.154191,5.82619 -5.919509,8.92606 -0.371512,0.76153 -0.772779,1.50924 -1.114536,2.28458 -1.161897,2.63595 -1.912755,5.4176 -2.483067,8.23322 0,0 3.437527,1.7515 3.437527,1.7515 z" />
    <path
       style="fill:#000000;stroke:#000000;stroke-width:1.465"
       id="path3038"
       d="m 126.16271,202.05731 c -0.86047,1.03638 -1.80532,1.99691 -2.7982,2.90563 -0.16589,0.14325 -0.39443,0.23639 -0.49766,0.42973 -0.18471,0.34593 -0.21926,0.75306 -0.33408,1.12802 -0.30536,0.99714 -0.55312,1.97967 -1.18811,2.84478 -1.33275,1.81573 -2.33667,2.26593 -4.22756,3.61156 -6.23049,3.57592 -13.1562,5.64766 -20.128672,7.20241 -3.04808,0.67065 -6.143699,0.9986 -9.258324,1.06934 -3.150137,0.15118 -6.281145,-0.14263 -9.29091,-1.13195 -0.969957,-0.31883 -1.908688,-0.7258 -2.863032,-1.0887 -1.087731,-0.54981 -2.197688,-1.05769 -3.263194,-1.64941 -0.239498,-0.133 -0.419295,-0.35315 -0.638545,-0.5174 -1.219959,-0.91396 -2.49247,-1.75926 -3.678523,-2.71681 -3.430347,-2.76945 -6.470076,-5.96222 -9.491284,-9.15753 -3.228777,-3.55216 -6.267598,-7.30507 -8.519234,-11.55925 -1.196131,-2.1994 -1.744941,-4.6258 -2.094741,-7.08148 -0.216363,-1.72857 -0.216757,-3.47321 -0.241808,-5.2121 0.03349,-2.63845 0.566219,-5.23513 0.896014,-7.84624 0.09992,-1.76155 0.594527,-3.45244 0.94959,-5.16909 0.211733,-1.77673 0.886965,-3.42359 1.526312,-5.07727 0.739384,-1.99257 1.856912,-3.7669 3.077729,-5.49063 1.06013,-1.24189 1.856115,-2.59192 2.403536,-4.12406 0.676878,-1.8136 1.439433,-3.56023 1.760765,-5.47746 0.310919,-1.92143 0.200837,-3.87988 0.419205,-5.80666 0.117417,-1.5684 1.063014,-2.7816 1.912972,-4.03376 1.146133,-1.85134 2.703753,-3.44611 4.415235,-4.78006 1.660329,-1.26964 3.366727,-2.44453 4.877797,-3.89537 1.652114,-2.78751 1.716836,-4.72501 1.097219,-7.8486 -0.183443,-0.58171 -0.33922,-1.17287 -0.550325,-1.74512 -0.473308,-1.28299 -0.867487,-2.03356 -1.51501,-3.21572 -0.666583,-1.21695 -1.236898,-2.04033 -1.633072,-3.37904 0.09357,-0.28805 0.09758,-0.62291 0.280708,-0.86414 0.500165,-0.65886 1.977416,-1.284 2.59552,-1.5243 2.409647,-0.93677 4.967964,-1.48243 7.477537,-2.067 3.053157,-0.67476 6.143324,-1.17796 9.26583,-1.35957 2.580601,0.14294 4.968637,1.17632 7.395372,1.96437 2.534922,0.9855 4.946168,2.26484 7.420163,3.39716 2.90843,1.30559 5.85556,2.42355 9.01032,2.91704 2.85657,0.29687 5.73331,0.32109 8.60267,0.34583 2.36457,0.003 4.72163,-0.13703 7.06509,0.22916 1.18117,0.25457 4.9904,1.72308 -0.31335,-0.69 -0.33733,-0.15348 0.61579,0.41393 0.90632,0.64401 0.98214,0.77777 0.86821,0.766 1.67743,1.80193 2.6462,4.59073 3.84011,9.84356 4.82258,15.0014 0.91339,5.54726 0.98678,11.18288 1.04629,16.79052 -0.0133,4.14932 0.22809,8.29358 0.36651,12.43948 0.0725,2.83992 0.19792,5.67313 -0.0988,8.5025 -0.49298,4.39085 -1.23519,8.7488 -2.13938,13.0725 -0.97781,4.40146 -1.61174,8.86679 -2.06063,13.35013 -0.11374,1.85771 -0.26535,3.70447 -0.484,5.55241 -0.15024,1.43983 -0.1294,2.22747 -1.60063,2.71365 -1.12775,0.22793 -2.3239,0.0225 -3.43939,-0.20696 0,0 3.10421,2.34388 3.10421,2.34388 v 0 c 1.18049,0.19767 2.42052,0.40672 3.59024,0.0514 1.53803,-0.65755 1.65341,-1.51449 1.7881,-3.09673 0.21931,-1.86778 0.37651,-3.72642 0.40051,-5.60979 0.32178,-4.50193 0.9016,-8.98194 1.88659,-13.39089 0.91629,-4.31095 1.78923,-8.6391 2.32216,-13.01688 0.32836,-2.85121 0.22685,-5.70914 0.0846,-8.57182 -0.16411,-4.15877 -0.45835,-8.31438 -0.46059,-12.47779 -0.0971,-5.62962 -0.21789,-11.28852 -1.05223,-16.86501 -1.00119,-5.14955 -2.18015,-10.36384 -4.57351,-15.06837 -0.255,-0.36957 -0.4751,-0.76583 -0.765,-1.10872 -0.31419,-0.37162 -1.30418,-1.207 -1.7273,-1.46339 -2.3793,-1.44173 -3.84684,-2.56262 -6.35684,-2.99879 -2.35711,-0.29572 -4.72801,-0.17971 -7.09913,-0.18917 -2.84789,0.004 -5.70691,-0.005 -8.53578,-0.37283 -3.10401,-0.54359 -6.02335,-1.65617 -8.891224,-2.95216 -2.502352,-1.15643 -4.924615,-2.50863 -7.527748,-3.42536 -2.450361,-0.79684 -4.884589,-1.80677 -7.499053,-1.85952 -3.082031,0.22463 -6.114463,0.84967 -9.123029,1.53669 -1.808186,0.43519 -3.427667,0.80432 -5.218726,1.32124 -1.607855,0.46404 -4.143531,0.99192 -5.240425,2.47532 -0.22579,0.30535 -0.255191,0.71538 -0.382783,1.07306 0.09411,0.35482 0.142483,0.72506 0.282339,1.06445 0.199745,0.48474 1.15987,2.0217 1.394225,2.4284 0.8866,1.53863 1.673955,3.12389 2.108938,4.85771 0.59354,2.8853 0.607287,4.89898 -1.001414,7.46381 -1.494507,1.44201 -3.196693,2.60245 -4.826735,3.88297 -1.723411,1.38135 -3.330453,2.98467 -4.518433,4.85641 -0.873831,1.30083 -1.894197,2.56609 -2.019755,4.19067 -0.201297,1.92751 -0.0429,3.88574 -0.368633,5.80621 -0.332444,1.88666 -1.043697,3.62962 -1.74915,5.40451 -0.555895,1.48837 -1.322604,2.81642 -2.347989,4.03977 -1.214885,1.76157 -2.319983,3.57923 -3.118612,5.57304 -0.658971,1.66585 -1.354569,3.33424 -1.566712,5.12945 -0.360132,1.72939 -0.86972,3.43368 -0.939993,5.21227 -0.289301,2.6316 -0.766778,5.24282 -0.913966,7.88838 -0.02172,1.75544 -0.03974,3.51565 0.211362,5.25859 0.369401,2.48981 0.881574,4.98541 2.085811,7.22348 2.337832,4.3492 5.496148,8.16593 8.821783,11.79603 3.04211,3.20593 6.097688,6.42425 9.522478,9.2334 4.109273,3.3706 8.728906,6.06963 13.527299,8.33202 0.980467,0.36792 1.945312,0.78051 2.941397,1.10376 3.084581,1.00103 6.282296,1.2769 9.506341,1.15975 3.080573,-0.0749 6.120379,-0.54433 9.11832,-1.26202 6.960127,-1.6935 13.870797,-3.85256 20.160337,-7.34434 1.95118,-1.32872 3.0741,-1.83774 4.495,-3.6546 0.62798,-0.80299 0.98867,-1.90992 1.30414,-2.86519 0.0993,-0.30073 0.11386,-0.6357 0.27105,-0.91064 0.11047,-0.1932 0.33439,-0.29378 0.50158,-0.44067 0.99724,-0.92929 1.93639,-1.91228 2.85438,-2.91979 0,0 -3.3787,-2.04008 -3.3787,-2.04008 z" />
    <path
       style="fill:#000000;stroke:#000000;stroke-width:1.465"
       id="path3040"
       d="m 137.60042,144.10599 c 2.22804,-0.37116 4.36105,-1.0666 6.51098,-1.73556 2.72144,-0.85612 5.34124,-2.03158 7.74822,-3.56041 2.37811,-1.95548 4.27228,-4.33773 5.67584,-7.06347 1.09685,-2.2621 2.21293,-4.52408 2.99243,-6.91765 0.51204,-2.17613 0.93943,-4.47267 0.6044,-6.71474 -0.086,-0.57531 -0.24632,-1.13702 -0.36948,-1.70553 -0.80436,-3.57867 -2.58601,-6.80451 -4.46931,-9.91254 -1.4378,-2.20413 -2.67687,-4.51114 -3.46123,-7.026421 -0.60422,-2.316771 -0.60717,-4.726384 -0.64704,-7.103771 -0.15559,-1.352722 0.19914,-2.789489 -0.061,-4.133811 -0.38186,-1.973357 -2.85399,-2.601095 -4.4359,-3.257166 -0.34466,-0.142941 -0.73486,0.129826 -1.1023,0.194739 -2.48088,0.667834 -4.43867,2.232271 -6.30498,3.918093 -1.85514,1.619167 -4.02158,2.718159 -6.28973,3.619611 -2.41503,0.6951 -4.84505,1.310925 -7.2433,2.062675 -2.83025,0.936726 -5.30039,2.769693 -7.51609,4.725525 -1.73241,1.700606 -3.1194,3.689326 -4.4607,5.699466 -1.05218,1.67615 -2.01304,3.38711 -2.65695,5.26328 -0.31422,1.27226 -0.17971,0.62602 -0.4012,1.9392 0,0 3.41288,1.81037 3.41288,1.81037 v 0 c 0.20874,-1.27476 0.0818,-0.64819 0.37809,-1.88027 0.62025,-1.8487 1.56194,-3.53591 2.59996,-5.18192 1.29997,-1.99485 2.64751,-3.97299 4.36243,-5.64228 2.17282,-1.954176 4.62525,-3.698171 7.43832,-4.584091 2.41165,-0.765625 4.87506,-1.325187 7.29393,-2.065026 2.28864,-0.942155 4.43875,-2.154052 6.35027,-3.741933 1.80875,-1.646452 3.72092,-3.188213 6.17766,-3.70904 1.52687,-0.02901 2.74376,0.139059 -1.50475,-1.686666 -0.28649,-0.123113 0.4071,0.496668 0.48879,0.797594 0.34116,1.256599 -0.10499,2.841652 0.0769,4.125402 0.0155,2.402872 -0.007,4.837957 0.56947,7.187147 0.76585,2.559773 2.0031,4.917053 3.47867,7.141563 1.91738,3.06274 3.7269,6.2437 4.53741,9.80327 0.11846,0.54646 0.2708,1.08667 0.35539,1.63939 0.33613,2.19625 -0.0476,4.43977 -0.55619,6.57398 -0.76068,2.37909 -1.87749,4.61757 -2.95762,6.86555 -1.37158,2.66464 -3.13544,5.06617 -5.53459,6.91008 -2.41499,1.47916 -5.02104,2.62869 -7.73243,3.45415 -2.16144,0.67475 -4.31333,1.3608 -6.57453,1.6269 0,0 3.22731,2.26431 3.22731,2.26431 z" />
    <path
       style="fill:#000000;stroke:#000000;stroke-width:1.465"
       id="path3042"
       d="m 89.028298,104.49724 c -0.378778,-1.78338 -0.436152,-3.61556 -0.505764,-5.431415 -0.06329,-2.124795 -0.05009,-4.25078 -0.06636,-6.376241 -0.02003,-1.510657 0.08398,-3.047127 -0.230087,-4.538689 -0.257183,-1.221402 -0.529672,-1.741869 -1.001389,-2.915021 -1.508559,-3.077916 -3.548568,-5.83775 -6.057302,-8.163927 -3.281556,-2.415744 -6.953578,-4.284872 -10.682597,-5.912999 -0.872408,-0.619241 -4.978231,-2.416659 -0.269386,-0.04873 0.413602,0.207987 -0.791771,-0.480398 -1.178568,-0.734787 -1.130969,-0.743813 -1.115951,-0.769554 -2.137082,-1.588119 -1.545979,-1.140995 -2.139714,-3.020989 -3.39368,-4.397047 -1.295326,-0.761595 -2.536468,-1.623941 -3.885978,-2.284783 -0.212119,-0.103873 -0.480393,-0.02892 -0.707678,0.03531 -1.596282,0.451073 -2.556323,2.444898 -3.3992,3.701979 -1.564368,2.217195 -2.64948,4.691925 -3.907698,7.079051 -1.224724,2.2498 -2.169533,4.592452 -2.783771,7.076498 -0.417732,1.890914 -0.368022,3.836355 -0.552998,5.753658 -0.173889,1.802355 -0.299564,2.397387 -0.591521,4.227669 -0.478895,3.505155 -1.445633,6.903225 -2.450925,10.284343 -1.02095,3.09199 -1.195639,6.36563 -1.374674,9.59199 -0.04655,2.06694 -0.205121,4.19224 0.138509,6.24649 0.131948,0.78879 0.431893,1.76033 0.652261,2.53124 0.900015,2.42167 2.365701,4.59287 3.95527,6.61227 1.600538,2.03258 3.606599,3.66322 5.531104,5.36879 1.047287,1.0676 2.2909,1.89303 3.310358,2.98988 0,0 3.589284,1.51088 3.589284,1.51088 v 0 c -0.99437,-1.16118 -2.260107,-1.97029 -3.331006,-3.0481 -1.927413,-1.70175 -3.966945,-3.29014 -5.577451,-5.31684 -1.607349,-1.97211 -3.062771,-4.10927 -4.01982,-6.47801 -0.228486,-0.75402 -0.536617,-1.70308 -0.685831,-2.47586 -0.393843,-2.03968 -0.277511,-4.15962 -0.232183,-6.22059 0.175162,-3.19479 0.376082,-6.42427 1.39876,-9.48235 0.958601,-3.420472 1.855771,-6.860704 2.355974,-10.384628 0.239956,-1.370606 0.517268,-2.832116 0.680783,-4.218417 0.22261,-1.887309 0.167352,-3.806901 0.577186,-5.672187 0.576321,-2.46479 1.530321,-4.768157 2.723589,-7.000788 1.253932,-2.373479 2.326722,-4.840467 3.865126,-7.055913 0.717177,-1.052838 1.43524,-2.379668 2.560196,-3.070371 0.215014,-0.132014 0.468209,-0.210942 0.719304,-0.23564 0.202512,-0.01992 0.766339,0.224705 0.601239,0.105751 -0.87167,-0.628034 -1.840939,-1.108094 -2.761408,-1.662142 1.424683,1.274096 1.883963,3.284649 3.449423,4.460418 3.059938,2.536629 6.609979,4.383809 10.140733,6.181963 1.734968,0.775514 0.412014,0.171444 2.227506,1.037769 0.443727,0.211741 1.689414,0.969092 1.33391,0.629468 -0.530403,-0.506704 -1.268392,-0.739214 -1.877163,-1.14845 -0.816277,-0.548728 3.461154,2.046951 2.490692,1.582134 2.544535,2.249014 4.592669,4.973489 6.125511,8.008744 0.43052,1.044943 0.762813,1.709478 1.000385,2.80647 0.318497,1.470678 0.206443,2.994165 0.231671,4.484201 -0.01082,2.131163 0.01667,4.261794 0.07053,6.392359 0.05313,1.815677 0.0979,3.640439 0.376478,5.438519 0,0 3.555733,1.7242 3.555733,1.7242 z" />
    <path
       style="fill:#000000;stroke:#000000;stroke-width:1.465"
       id="path3044"
       d="m 142.09817,154.90769 c 1.46635,-1.16454 3.19035,-1.79082 4.98634,-2.23282 1.71329,-0.37853 3.46892,-0.43206 5.21579,-0.46177 2.35189,-0.12077 4.45127,-1.04998 6.43683,-2.24661 2.18081,-1.39036 3.60993,-3.55856 4.99494,-5.68358 1.50478,-2.59575 2.77912,-5.33251 3.85705,-8.13179 0.71398,-2.62377 1.3241,-5.28858 1.86001,-7.95659 0.43577,-2.92871 1.12462,-5.81038 1.7811,-8.69515 0.50114,-2.28901 0.91118,-4.59952 1.05613,-6.93985 -0.009,-2.83052 -1.42183,-5.39218 -2.81104,-7.77512 -1.62534,-2.62106 -3.76733,-4.85607 -5.93732,-7.02673 -2.06909,-1.909577 -4.19183,-3.722301 -5.90934,-5.965574 -1.0685,-1.357556 -1.51956,-2.948368 -1.91566,-4.587962 -0.24543,-1.387475 -0.68119,-2.666317 -1.72779,-3.638653 -3.93166,-2.135098 -2.44429,-2.552782 -4.22209,-1.911683 0,0 3.24256,2.254739 3.24256,2.254739 v 0 c 1.4508,0.0056 0.38087,0.05274 -2.65704,-1.806355 1.15539,0.820565 1.62709,2.037585 1.84045,3.41395 0.43513,1.680065 0.81668,3.350265 1.9178,4.758904 1.69797,2.296991 3.82396,4.136052 5.94019,6.038419 2.17504,2.13696 4.29746,4.368315 5.96491,6.933215 1.37766,2.29886 2.80185,4.78382 2.83574,7.53439 -0.13903,2.3308 -0.43867,4.64772 -0.94365,6.92958 -0.64425,2.88474 -1.39279,5.75236 -1.83486,8.6775 -0.51984,2.65407 -1.09878,5.30757 -1.79711,7.91822 -1.04327,2.78373 -2.32757,5.48643 -3.83775,8.04768 -1.36353,2.06942 -2.76075,4.19797 -4.90665,5.53504 -1.96742,1.16498 -4.05798,1.99316 -6.37705,2.04525 -1.75931,0.0402 -3.52592,0.13252 -5.24266,0.5523 -1.82461,0.48617 -3.54017,1.1912 -5.11601,2.2457 0,0 3.30618,2.17535 3.30618,2.17535 z" />
    <path
       style="fill:#000000;stroke:#000000;stroke-width:1.465"
       id="path3046"
       d="m 138.77998,151.74762 c -1.10469,0.17729 -2.19061,0.30708 -3.2542,0.66609 0,0 3.22468,2.19489 3.22468,2.19489 v 0 c 1.07161,-0.31686 2.16971,-0.4313 3.27175,-0.60177 0,0 -3.24223,-2.25921 -3.24223,-2.25921 z" />
    <path
       style="fill:#000000;stroke:#000000;stroke-width:1.465"
       id="path3048"
       d="m 62.494805,61.066367 c 4.029898,1.323369 8.059496,2.635052 12.132995,3.819681 2.747581,0.972765 5.589148,1.698366 8.286673,2.81309 0.45684,0.188785 1.748618,0.908193 1.347245,0.619678 -0.707228,-0.508368 -1.516314,-0.857457 -2.274469,-1.286185 1.372999,0.83942 1.785355,2.138423 1.925389,3.650149 0.134194,1.576277 0.605954,3.059399 1.320702,4.46046 0.695859,1.357794 1.515803,2.648021 2.188638,4.017095 0.815787,1.464307 1.099847,3.123099 1.664028,4.681632 0.607722,1.554464 1.225669,3.104679 1.895711,4.633561 0.80963,1.642388 1.46418,3.343307 1.836356,5.136753 0.269005,1.668436 0.255278,3.366164 0.259504,5.051409 -0.01876,1.62755 0.03754,3.25873 -0.07875,4.88302 -0.06277,1.24425 -0.28588,2.39708 -0.869707,3.49724 0,0 3.390996,1.94189 3.390996,1.94189 v 0 c 0.611134,-1.14918 0.856318,-2.34362 0.927137,-3.64415 0.166923,-1.6332 0.04659,-3.27868 0.08653,-4.91845 -0.0073,-1.704043 0.01963,-3.418374 -0.206934,-5.110776 C 95.964423,93.48758 95.31335,91.755631 94.49276,90.086073 93.831686,88.566206 93.234831,87.021486 92.618592,85.483268 92.001063,83.932582 91.763766,82.250374 90.957461,80.770443 90.331746,79.374383 89.486619,78.095188 88.781523,76.738752 88.043565,75.393909 87.538341,73.971451 87.412114,72.430176 87.29984,70.843883 86.969447,69.367142 85.57204,68.408927 84.143049,67.592407 82.734288,66.739415 81.285065,65.959365 80.600389,65.590837 78.956163,65.013532 78.289831,64.7838 76.123123,64.036778 73.923851,63.387699 71.74872,62.666421 67.592176,61.443618 63.49091,60.064014 59.380383,58.697859 c 0,0 3.114421,2.368508 3.114421,2.368508 z" />
    <path
       style="fill:#000000;stroke:#000000;stroke-width:1.465"
       id="path3776"
       d="m 58.391191,58.219969 c -0.635108,0.465275 -1.113985,1.121042 -1.640797,1.704472 0,0 3.342505,2.026854 3.342505,2.026854 v 0 c 0.500766,-0.545338 0.957448,-1.180925 1.604475,-1.555975 0,0 -3.306183,-2.175351 -3.306183,-2.175351 z" />
    <path
       style="fill:#000000;stroke:#000000;stroke-width:1.465"
       id="path3778"
       d="m 78.316888,136.21995 c 0.935895,-1.49204 2.450407,-2.13537 4.084161,-2.57041 2.15156,-0.39861 4.418939,-0.21337 6.498053,0.4468 1.437934,0.23251 7.959473,4.02376 1.987005,0.63541 1.565071,1.03748 3.039631,2.20173 4.581112,3.27398 2.989577,2.03664 4.764901,2.96549 8.078981,3.25198 1.64779,0.20996 3.23252,-0.0843 4.82384,-0.47245 1.59528,-0.53976 3.10725,-1.28433 4.72118,-1.77161 2.73723,-0.70401 5.56039,-0.45046 8.3333,-0.1573 2.37018,0.25873 4.72255,0.35282 6.86159,1.48664 -2.87889,-1.56807 -3.41058,-2.17298 -2.20296,-0.9922 0,0 3.60209,1.5071 3.60209,1.5071 v 0 c -1.46387,-1.71774 -0.25956,-0.42101 -4.42571,-2.93256 -2.1739,-0.98734 -4.51773,-1.07839 -6.86614,-1.31787 -2.82801,-0.26832 -5.72644,-0.52498 -8.50756,0.22188 -1.59946,0.51164 -3.11201,1.24936 -4.7173,1.74323 -1.56548,0.36975 -3.13365,0.5875 -4.74461,0.37071 -0.815736,-0.0862 -1.620993,-0.17809 -2.410989,-0.41224 -1.278556,-0.37895 -4.059031,-2.0058 1.065782,0.89547 -1.549929,-1.07229 -3.050657,-2.20794 -4.584735,-3.30196 -2.787279,-1.6209 -5.532871,-3.43985 -8.648149,-4.38074 -2.152526,-0.5639 -4.449009,-0.757 -6.638571,-0.28349 -1.717267,0.50795 -3.254755,1.26607 -4.303339,2.7815 0,0 3.412969,1.97813 3.412969,1.97813 z" />
    <path
       style="fill:#000000;stroke:#000000;stroke-width:1.465"
       id="path3780"
       d="m 112.50837,144.09875 c -0.38826,1.56169 -0.27159,3.13145 -0.0172,4.70034 0.20099,0.85909 0.49456,1.78385 1.31578,2.24932 3.84676,2.1804 2.51403,1.86446 4.56892,2.24973 1.28812,0.11301 2.49942,0.35628 3.68907,-0.24834 1.09963,-0.84931 1.33536,-2.15357 1.35602,-3.46807 -0.0879,-0.53203 -0.0576,-0.74022 -0.38386,-1.19034 -0.96449,-1.33062 -5.34252,-3.35916 -5.75422,-3.58713 -1.29939,-0.50775 -2.68426,-0.58051 -4.06121,-0.61357 -1.57035,-0.0229 -3.14101,-0.0122 -4.71144,-0.004 -1.56386,0.0115 -3.12777,0.007 -4.69165,0.005 -1.4891,-0.0238 -2.97936,0.0705 -4.462906,-0.074 -1.757995,-0.16135 -3.488402,-0.29925 -5.132438,-0.97729 -1.440757,-0.7222 -3.042751,-0.96104 -4.52373,-1.57656 -1.897983,-0.71757 -3.855619,-1.27573 -5.814681,-1.80106 -1.749169,-0.44893 -2.989506,-0.77318 -4.745194,-0.25398 -0.962829,0.4587 -1.712026,1.25351 -1.762683,2.34937 0.298498,1.228 1.390978,1.93095 2.399678,2.55985 2.549229,1.64443 5.210487,3.01036 8.097973,3.90217 1.502658,0.44216 2.159621,0.2399 2.684031,-1.24898 0.152947,-0.70083 0.178292,-1.39805 0.45707,-2.06391 0,0 -3.432987,-1.92398 -3.432987,-1.92398 v 0 c -0.282824,0.67783 -0.350867,1.36853 -0.463489,2.08997 -0.443931,1.34076 -1.100797,1.11049 -2.323156,0.76161 -0.781314,-0.25727 -1.543679,-0.54453 -2.306185,-0.8535 -0.27849,-0.11284 -1.080084,-0.51461 -0.833972,-0.34221 0.588624,0.4123 3.968004,2.35549 1.753103,1.07764 -0.962112,-0.5385 -1.998797,-1.16051 -2.501768,-2.18443 -0.18448,-0.9224 0.708565,-1.58408 1.465281,-1.90567 1.545185,-0.39722 3.046788,-0.0253 4.563457,0.3787 1.961414,0.53752 3.91891,1.11398 5.814361,1.8543 1.500497,0.55575 3.078634,0.88409 4.530003,1.57593 1.682163,0.58493 3.432802,0.7299 5.198352,0.89002 1.49782,0.0984 2.99978,0.0542 4.5003,0.0618 1.55983,-0.005 3.11965,-0.0148 4.67949,-0.015 1.56871,-0.004 3.13783,-0.0232 4.70621,0.0187 1.35466,0.0638 2.71446,0.17607 3.96964,0.73883 -0.89115,-0.53396 -1.78818,-1.05823 -2.67346,-1.60187 -0.2149,-0.13197 0.44744,0.23377 0.66184,0.36654 0.72938,0.45168 1.48079,0.90606 1.6163,1.81489 0.0314,1.14728 -0.13668,2.36408 -1.14042,3.07195 -1.12091,0.43075 -2.37437,0.20774 -3.5367,0.0458 -1.68702,-0.4548 -0.56475,-0.21185 2.19721,1.54002 0.16474,0.1045 -0.36586,-0.14664 -0.52369,-0.2613 -0.55536,-0.40344 -0.7788,-1.08186 -0.96065,-1.70633 -0.27558,-1.51185 -0.43316,-3.01611 0.0177,-4.51701 0,0 -3.48413,-1.88415 -3.48413,-1.88415 z" />
    <path
       style="fill:#000000;stroke:#000000;stroke-width:1.465"
       id="path3782"
       d="m 88.075351,159.0345 c 1.319466,-0.41826 2.388677,-1.17768 3.297356,-2.21094 1.920005,-2.89873 0.116486,-2.65908 -3.099416,-4.28071 -0.82967,0.94129 -1.311751,2.10019 -2.149935,3.05043 -0.585793,0.6096 -1.140923,1.22347 -1.825422,1.72295 0,0 3.3151,2.09362 3.3151,2.09362 v 0 c 0.681609,-0.53868 1.255966,-1.17153 1.854189,-1.79985 0.468874,-0.54891 0.871384,-1.10461 1.241322,-1.72555 0.140933,-0.23656 0.356566,-0.68134 0.569849,-0.89901 0.06262,-0.0639 0.151739,-0.0948 0.22761,-0.14225 -1.074475,-0.63582 -2.148951,-1.27164 -3.223426,-1.90746 0.207814,0.0403 0.398618,0.0109 0.429755,0.31407 0.05788,0.56372 -0.423747,1.1126 -0.680234,1.55468 -0.874024,0.9823 -1.924888,1.67513 -3.217296,1.98103 0,0 3.260548,2.24899 3.260548,2.24899 z" />
    <path
       style="fill:#000000;stroke:#000000;stroke-width:1.465"
       id="path3784"
       d="m 95.419647,155.14003 c 0.479258,1.25661 1.243581,2.30772 2.141043,3.29255 0.32812,0.30605 0.564798,0.50859 0.85254,0.83277 0.04992,0.0562 0.104434,0.24876 0.135581,0.18031 0.429995,-0.94491 -5.282351,-3.36989 2.333969,0.7783 -0.92868,-0.88147 -1.836635,-1.99863 -1.531869,-3.33865 0.06548,-0.16219 0.114572,-0.33201 0.196458,-0.48657 0.108797,-0.20535 0.321511,-0.51446 0.550821,-0.6278 0.0678,-0.0335 0.29202,0.0173 0.22605,-0.0196 -3.934858,-2.20547 -4.165188,-2.42647 -3.015256,-1.47566 0.728829,1.32433 1.149495,2.04605 2.372521,3.03185 1.063185,0.81014 0.528335,0.41465 1.604235,1.18689 0,0 3.59453,1.41757 3.59453,1.41757 v 0 c -1.08261,-0.75206 -0.55007,-0.36199 -1.59741,-1.17049 -1.10769,-0.7839 -1.88363,-1.65705 -2.32647,-2.94203 -2.066185,-2.78004 -4.086496,-3.31671 -5.055902,-0.77969 -0.423749,1.58835 0.328922,2.59501 1.361011,3.74846 1.294241,0.8017 2.573181,1.62865 3.882721,2.40511 0.39787,0.2359 0.73555,0.41311 1.03284,-0.12998 0.0783,-0.14298 -0.9079,-1.05843 -1.01864,-1.10556 -0.89173,-0.93631 -1.743332,-1.90291 -2.132992,-3.16638 0,0 -3.605781,-1.63137 -3.605781,-1.63137 z" />
  </g>
</svg>
