<?xml version="1.0" encoding="UTF-8" standalone="no"?>
<!-- Created with Inkscape (http://www.inkscape.org/) -->

<svg
   width="210mm"
   height="297mm"
   viewBox="0 0 210 297"
   version="1.1"
   id="svg5261"
   inkscape:version="1.2.2 (732a01da63, 2022-12-09)"
   sodipodi:docname="rabbit.svg"
   xmlns:inkscape="http://www.inkscape.org/namespaces/inkscape"
   xmlns:sodipodi="http://sodipodi.sourceforge.net/DTD/sodipodi-0.dtd"
   xmlns="http://www.w3.org/2000/svg"
   xmlns:svg="http://www.w3.org/2000/svg">
  <sodipodi:namedview
     id="namedview5263"
     pagecolor="#ffffff"
     bordercolor="#000000"
     borderopacity="0.25"
     inkscape:showpageshadow="2"
     inkscape:pageopacity="0.0"
     inkscape:pagecheckerboard="0"
     inkscape:deskcolor="#d1d1d1"
     inkscape:document-units="mm"
     showgrid="false"
     inkscape:zoom="0.46057099"
     inkscape:cx="645.93734"
     inkscape:cy="720.84436"
     inkscape:window-width="1366"
     inkscape:window-height="697"
     inkscape:window-x="-8"
     inkscape:window-y="-8"
     inkscape:window-maximized="1"
     inkscape:current-layer="layer1" />
  <defs
     id="defs5258" />
  <g
     inkscape:label="Camada 1"
     inkscape:groupmode="layer"
     id="layer1">
    <path
       style="fill:#000000;stroke:#000000;stroke-width:1.465"
       id="path6126"
       d="m 56.397159,175.11149 c 0.709192,-0.42246 1.4702,-0.75138 2.231951,-1.06628 1.189281,-0.47196 2.444665,-0.7698 3.693755,-1.03958 1.091629,-0.23185 2.209808,-0.25646 3.320825,-0.28873 1.364377,-0.04 2.72918,-0.009 4.093247,0.0258 0.522386,0.0134 0.262819,-0.001 0.778719,0.0433 0,0 -3.097019,-2.28057 -3.097019,-2.28057 v 0 c -0.526296,-0.0227 -0.268772,-0.0202 -0.772546,-0.01 -1.33739,0.029 -2.674919,0.0526 -4.012705,0.0424 -1.14549,0.009 -2.304063,-0.002 -3.41503,0.31983 -1.250011,0.31958 -2.513097,0.6163 -3.714009,1.09414 -0.799815,0.31114 -1.592948,0.63953 -2.387995,0.96137 0,0 3.280807,2.19795 3.280807,2.19795 z" />
    <path
       style="fill:#000000;stroke:#000000;stroke-width:1.465"
       id="path6128"
       d="m 125.84751,173.06914 c 1.10897,-0.4936 2.33593,-0.63586 3.5295,-0.77695 1.56623,-0.16336 3.14147,-0.17148 4.71424,-0.1825 1.15166,-0.003 2.30595,-0.073 3.45702,-0.005 0.44047,0.0259 1.14444,0.11105 1.59364,0.1619 0.86965,0.11438 1.73131,0.28665 2.56672,0.55462 0,0 -3.04858,-2.34648 -3.04858,-2.34648 v 0 c -0.82281,-0.20319 -1.6572,-0.34497 -2.50219,-0.41921 -1.69446,-0.12555 -3.39215,-0.13474 -5.09067,-0.13695 -1.5612,0.0284 -3.12366,0.0959 -4.67726,0.25686 -1.29448,0.15338 -2.60386,0.31661 -3.8486,0.71853 0,0 3.30618,2.17535 3.30618,2.17535 z" />
    <path
       style="fill:#000000;stroke:#000000;stroke-width:1.465"
       id="path6130"
       d="m 97.165601,171.10693 c 0.25065,0.70173 0.437057,1.42269 0.638992,2.13934 0.37842,1.04593 0.595665,2.12418 0.744286,3.22296 0.148553,1.507 0.137581,3.02331 0.118412,4.53563 0.05654,1.10277 -0.07434,2.10984 -0.434208,3.14988 -0.572942,1.36228 -1.483934,2.51332 -2.450658,3.61382 -1.332322,1.40353 -2.886792,2.57088 -4.544073,3.56069 -1.540071,0.8924 -2.761835,0.99725 -4.506767,0.91741 -0.26575,-0.0521 -0.534908,-0.0891 -0.797256,-0.15622 -0.503274,-0.12884 -0.997312,-0.32187 -1.458788,-0.55964 -0.224237,-0.11554 -0.874276,-0.50348 -0.652362,-0.38354 2.642682,1.42826 3.373088,2.06285 2.073513,1.01842 -0.133328,-0.12611 -0.266657,-0.25221 -0.399984,-0.37831 0,0 -3.491568,-1.44014 -3.491568,-1.44014 v 0 c 0.140652,0.1398 0.281302,0.27959 0.421952,0.41939 1.603007,1.36392 0.521438,0.49194 4.281628,2.70789 0.911288,0.53704 1.926976,0.85099 2.980102,0.93427 0.881185,0.0127 1.761482,0.0203 2.627329,-0.17949 0.728593,-0.16816 1.381074,-0.53603 2.024597,-0.90089 1.631918,-1.06786 3.132418,-2.32257 4.520432,-3.69216 1.044906,-1.10027 2.08483,-2.23049 2.69179,-3.64326 0.39447,-1.06392 0.54841,-2.15132 0.4573,-3.28695 -0.0345,-1.52642 -0.0695,-3.05296 -0.12977,-4.57861 -0.0592,-1.10647 -0.25546,-2.17823 -0.60245,-3.23271 -0.20223,-0.68248 -0.35493,-1.37856 -0.57066,-2.05621 0,0 -3.541789,-1.73157 -3.541789,-1.73157 z" />
    <path
       style="fill:#000000;stroke:#000000;stroke-width:1.465"
       id="path6132"
       d="m 99.182332,181.40955 c 0.139964,1.10462 0.452191,2.17481 0.773699,3.23745 0.312669,1.20768 0.760559,2.36709 1.247169,3.51319 0.34113,0.85725 0.68107,1.7026 1.30266,2.39473 1.61495,1.3847 3.53342,2.39366 5.47669,3.24775 0.54509,0.22609 1.09029,0.48153 1.66922,0.6123 0.46108,0.10414 0.78623,0.12385 1.26809,0.17694 2.60547,0.13487 5.21966,0.16562 7.82874,0.15044 2.18615,0.0532 4.30694,-0.45289 6.37883,-1.09488 0.79925,-0.23447 1.54801,-0.59324 2.29509,-0.95393 0,0 -3.19722,-2.09599 -3.19722,-2.09599 v 0 c -0.68219,0.384 -1.37659,0.74562 -2.12318,0.99161 -1.99115,0.65477 -4.0341,1.13192 -6.14431,1.12878 -2.67087,0.0249 -5.35444,0.003 -8.00623,-0.35065 -1.02555,-0.19163 -2.01881,-0.46913 -2.9569,-0.93683 -1.23811,-0.58367 -3.30307,-1.79745 2.02597,1.26536 0.11858,0.0682 -0.22855,-0.15033 -0.34057,-0.22878 -0.10606,-0.0743 -0.20848,-0.1536 -0.31354,-0.22929 -0.0976,-0.0703 -0.19626,-0.13911 -0.2944,-0.20867 -0.77763,-0.67533 -1.05779,-1.37277 -1.46173,-2.30635 -0.50857,-1.12767 -0.91834,-2.29639 -1.27613,-3.48031 -0.31264,-0.98672 -0.62325,-1.99342 -0.63011,-3.0384 0,0 -3.521838,-1.79447 -3.521838,-1.79447 z" />
    <circle
       style="fill:#000000;stroke:#000000;stroke-width:1.465"
       id="path6402"
       cx="81.718079"
       cy="155.82446"
       r="8.7606382" />
    <ellipse
       style="fill:#000000;stroke:#000000;stroke-width:1.465"
       id="path6404"
       cx="121.06915"
       cy="157.11702"
       rx="7.8989358"
       ry="8.0425529" />
    <ellipse
       style="fill:#ffffff;stroke:#000000;stroke-width:1.465"
       id="path6460"
       cx="80.569145"
       cy="156.25533"
       rx="3.0159574"
       ry="3.7340426" />
    <ellipse
       style="fill:#ffffff;stroke:#000000;stroke-width:1.465"
       id="path6462"
       cx="118.62766"
       cy="157.69148"
       rx="2.5851064"
       ry="3.4468086" />
    <path
       style="fill:#000000;fill-opacity:1;stroke:#000000;stroke-width:1.465"
       d="m 70.323658,137.22092 c 8.377143,-1.67019 15.921247,-19.82553 24.329388,-36.09519 9.112934,-17.633423 23.118484,-24.147534 28.379394,-18.845259 8.51465,8.581609 -0.14939,14.26099 -13.42106,25.686619 -11.494706,9.89584 -22.508269,20.16096 -17.348141,28.78637 z"
       id="path8144"
       sodipodi:nodetypes="cssscc" />
    <path
       style="fill:#000000;fill-opacity:1;stroke:#000000;stroke-width:1.465"
       d="m 113.91002,136.85407 c 5.00186,-3.22781 12.55263,-10.99513 21.59488,-24.95515 12.58351,-19.427253 27.80909,-30.407189 31.9756,-26.682118 3.21525,2.8746 1.13136,15.438628 -18.93126,31.804738 -5.79223,4.72502 -10.43538,17.64391 -10.54539,19.36507 z"
       id="path8144-0"
       sodipodi:nodetypes="cssscc" />
  </g>
</svg>
