<?xml version="1.0" encoding="UTF-8" standalone="no"?>
<!-- Created with Inkscape (http://www.inkscape.org/) -->

<svg
   width="210mm"
   height="297mm"
   viewBox="0 0 210 297"
   version="1.1"
   id="svg18554"
   inkscape:version="1.2.2 (732a01da63, 2022-12-09)"
   sodipodi:docname="tejo.svg"
   xmlns:inkscape="http://www.inkscape.org/namespaces/inkscape"
   xmlns:sodipodi="http://sodipodi.sourceforge.net/DTD/sodipodi-0.dtd"
   xmlns="http://www.w3.org/2000/svg"
   xmlns:svg="http://www.w3.org/2000/svg">
  <sodipodi:namedview
     id="namedview18556"
     pagecolor="#ffffff"
     bordercolor="#000000"
     borderopacity="0.25"
     inkscape:showpageshadow="2"
     inkscape:pageopacity="0.0"
     inkscape:pagecheckerboard="0"
     inkscape:deskcolor="#d1d1d1"
     inkscape:document-units="mm"
     showgrid="false"
     inkscape:zoom="0.46057099"
     inkscape:cx="391.90484"
     inkscape:cy="560.17423"
     inkscape:window-width="1366"
     inkscape:window-height="697"
     inkscape:window-x="-8"
     inkscape:window-y="-8"
     inkscape:window-maximized="1"
     inkscape:current-layer="layer1" />
  <defs
     id="defs18551" />
  <g
     inkscape:label="Camada 1"
     inkscape:groupmode="layer"
     id="layer1">
    <path
       style="fill:#000000;fill-opacity:1;stroke:#000000;stroke-width:1.465"
       id="path14885"
       d="m 119.40654,41.837694 c -1.86074,1.267687 -3.96123,2.136232 -6.02113,3.023573 -3.87442,1.805091 -7.6843,3.755253 -11.43957,5.796283 -3.565591,2.150115 -6.91573,4.632857 -10.337128,7.001055 -1.822233,1.276728 -3.704318,2.542421 -5.182039,4.231658 -0.589735,0.67415 -1.127218,1.527712 -1.624248,2.271543 -1.227373,2.118072 -1.640052,4.49317 -1.831062,6.895727 0.159117,2.663164 0.551389,5.30271 1.185404,7.892121 0.716098,2.68114 1.691254,4.818756 3.165049,7.153688 1.743652,2.466545 3.956172,4.549395 6.088618,6.671825 2.08207,1.93442 4.230847,3.802858 5.913104,6.108448 1.392132,2.070795 1.746032,4.456805 1.835932,6.895175 -0.14988,3.89292 -1.844814,7.39368 -3.672484,10.75082 -2.052643,3.58839 -4.375129,7.01664 -6.845403,10.32892 -2.080659,2.75486 -4.624438,5.02671 -7.307458,7.16431 -1.876187,1.37378 -3.556283,2.88094 -4.794568,4.85629 -1.47833,1.96585 -1.623983,3.6944 -1.975977,6.0697 -0.636952,4.08461 -1.149799,8.1855 -1.447469,12.30891 -0.220054,2.87131 -0.219702,5.75152 -0.225518,8.6291 -0.01521,3.32544 -0.03048,6.64718 0.257855,9.96192 0.43496,4.2589 1.952938,8.28485 3.640715,12.18522 1.875451,3.96311 4.7436,7.50004 8.295653,10.0997 0.86886,0.63589 1.808657,1.16872 2.712984,1.75308 2.079001,1.12494 4.134133,2.29515 6.236999,3.37483 0.203486,0.10447 7.276871,3.37458 7.338641,3.40354 3.63878,1.70582 7.20885,3.51116 10.76094,5.38936 0.95002,0.53008 1.91581,1.03284 2.85007,1.59023 0.23902,0.14261 -0.95563,-0.54273 -0.76093,-0.34384 0.51881,0.52996 1.20708,0.86706 1.75856,1.36292 1.41942,1.27625 2.08422,2.47955 2.80426,4.19679 0.38569,1.91375 0.75615,4.01486 0.29998,5.96042 -0.27098,1.15576 -0.73062,1.93176 -1.2512,2.9957 -1.21889,2.47593 -2.81094,4.74192 -4.14659,7.15102 -1.10667,1.99608 -1.46237,2.88797 -2.44029,5.02052 -1.88393,3.94532 -3.27993,8.16741 -5.44968,11.9766 -0.95085,1.66928 -1.59421,2.35645 -2.76465,3.80587 -3.27025,3.29096 -6.687417,4.08331 -11.05514,4.96906 -0.439071,0.14658 -2.877651,0.32475 -2.616642,1.49622 0.0615,0.27598 0.262022,0.53954 0.50763,0.67966 4.211558,2.40276 3.027148,2.21483 5.959014,2.10177 4.098848,-0.57182 7.615718,-2.79141 10.988768,-5.04272 3.04217,-2.33794 6.13836,-4.59121 9.29955,-6.76691 2.9512,-1.95576 6.12578,-3.29829 8.76425,-5.69707 1.87616,-2.01811 3.05719,-4.39452 3.79271,-7.02173 0.48907,-2.26912 0.50697,-4.59645 0.51998,-6.90629 0.0219,-2.3102 -0.27295,-4.60831 -0.43451,-6.91026 -0.0431,-3.01412 -0.75797,-5.94613 -1.3765,-8.87816 -0.6082,-2.90285 -1.14981,-5.81037 -1.4478,-8.76239 0.001,-2.58718 -0.84526,-4.92114 -1.97249,-7.20621 -1.32807,-2.49924 -3.13705,-4.68304 -4.94089,-6.84682 -1.88465,-2.27417 -3.80785,-4.5164 -5.73285,-6.75653 -2.07699,-2.40046 -3.68569,-5.15364 -5.28961,-7.8797 -1.14321,-1.81504 -2.099,-3.72892 -3.07905,-5.63346 -1.58203,-2.56601 -2.52475,-5.33135 -2.89151,-8.31099 -0.10303,-3.46294 1.44895,-6.53744 3.18224,-9.42818 1.74996,-2.87282 3.58375,-5.69353 5.32543,-8.57207 2.03703,-3.56627 3.91929,-7.21924 5.39325,-11.05443 1.17591,-3.06935 2.04692,-6.24824 3.03758,-9.38211 1.07429,-2.99037 1.63554,-6.09599 1.94293,-9.2467 0.3063,-2.70678 0.26306,-5.38449 -0.33168,-8.04268 -0.7338,-2.51293 -1.56821,-4.99315 -2.29943,-7.508 -0.5287,-1.47159 -0.99922,-2.99882 -1.8128,-4.346965 -0.32476,-0.53815 -0.94097,-1.33291 -1.32393,-1.84228 -1.66319,-1.746648 -3.22342,-3.118018 -4.43471,-5.246398 -1.54152,-3.29392 -0.62753,-5.578431 0.71508,-8.783253 2.39632,-4.529902 5.29627,-8.79313 8.37805,-12.883133 1.67321,-2.277052 4.06233,-3.749919 6.28034,-5.416675 2.43535,-1.468845 2.48667,-3.512883 2.29349,-6.109988 -0.31522,-2.627826 -1.32607,-5.065019 -2.49925,-7.410844 -0.85161,-1.878462 -2.03007,-3.416454 -3.65708,-4.664655 -1.68377,-1.094597 -3.37518,-2.236078 -5.28908,-2.869221 0,0 3.07991,2.404843 3.07991,2.404843 v 0 c 2.71337,1.063615 -4.19071,-2.504897 -1.40032,-0.969452 1.75511,1.265939 2.84486,2.528465 3.77144,4.520838 1.19789,2.295387 2.23335,4.693433 2.57668,7.282722 0.23437,2.533264 0.20301,4.300654 -2.12857,5.7609 -2.22252,1.702165 -4.59282,3.246623 -6.25059,5.563365 -2.99132,4.18575 -5.80687,8.521506 -8.33264,13.0025 -1.48235,3.210195 -2.53348,5.59639 -1.0553,8.998643 1.10991,2.05042 2.01381,2.86666 3.63656,4.46106 0.27204,0.26728 0.51926,0.5587 0.7789,0.838058 0.23425,0.30224 1.16417,1.49006 1.35958,1.79238 0.8495,1.3142 1.28783,2.838465 1.86123,4.279805 0.73471,2.51375 1.52997,5.00471 2.32785,7.49819 0.63118,2.61712 0.63626,5.25929 0.38885,7.9347 -0.28023,3.12988 -0.81287,6.22053 -1.8789,9.18999 -0.98354,3.13006 -1.89832,6.2861 -3.01059,9.37192 -1.44136,3.82255 -3.24345,7.49585 -5.34541,11.00105 -1.78235,2.85634 -3.62814,5.67326 -5.36923,8.55436 -1.7282,2.97285 -3.33223,6.113 -3.30974,9.63998 0.34777,3.00381 1.20421,5.81865 2.7966,8.41301 0.95387,1.93176 1.9161,3.85213 3.08598,5.6659 1.6411,2.72402 3.23868,5.50938 5.28822,7.95158 1.92753,2.22411 3.82809,4.47219 5.70439,6.73951 1.817,2.13556 3.62759,4.29911 4.98323,6.76681 1.13517,2.24157 2.02026,4.52105 2.02193,7.07805 0.32524,2.97143 0.85013,5.90405 1.48608,8.82455 0.61042,2.90334 1.30786,5.8096 1.32883,8.7944 0.13958,2.29706 0.47388,4.58406 0.45155,6.88802 -0.016,2.27807 -0.0185,4.57616 -0.47523,6.8181 -0.67116,2.5774 -1.81172,4.89038 -3.65669,6.84926 -2.58018,2.3477 -5.77264,3.79729 -8.67703,5.69258 -3.14853,2.18685 -6.25727,4.41731 -9.28371,6.76996 -3.34029,2.23332 -6.824881,4.43108 -10.926624,4.8197 -2.604936,-0.0725 -1.452499,-0.32104 0.72698,1.58353 0.161777,0.1414 -1.068398,-0.19013 -0.65568,-0.66923 0.457798,-0.53147 1.720284,-0.70745 2.208086,-0.83593 4.425148,-0.94821 7.907338,-1.80157 11.174038,-5.20068 1.12382,-1.46417 1.81447,-2.25562 2.72029,-3.92382 0.4623,-0.8514 0.8295,-1.75118 1.23229,-2.6323 1.4213,-3.1092 2.78211,-6.24629 4.20881,-9.35313 1.02239,-2.1256 1.37137,-2.95116 2.50193,-4.94287 1.36514,-2.40496 2.99442,-4.65602 4.23001,-7.13652 0.52685,-1.03878 1.0645,-1.94645 1.35251,-3.08553 0.50485,-1.99666 0.0634,-4.16346 -0.23978,-6.14529 -0.19608,-0.50931 -0.34173,-1.04102 -0.58822,-1.52794 -2.31193,-4.56695 -8.12224,-6.55598 -12.21016,-9.04612 -3.54219,-1.8547 -7.1042,-3.63705 -10.72353,-5.33742 -2.463341,-1.15729 -4.884754,-2.40929 -7.393862,-3.46368 -0.06552,-0.0275 -0.123134,0.071 -0.1847,0.10652 -0.89072,-0.56281 -1.815497,-1.07503 -2.672154,-1.68844 -3.543136,-2.53707 -6.435593,-6.00641 -8.313486,-9.92267 -1.696146,-3.84911 -3.161377,-7.83851 -3.62604,-12.04611 -0.312865,-3.29726 -0.2344,-6.598 -0.226658,-9.90692 0.0071,-2.87691 0.02663,-5.75514 0.171987,-8.62901 0.257116,-4.11411 0.673727,-8.21958 1.43751,-12.27401 0.373671,-2.09202 0.676106,-4.14455 1.992434,-5.88723 1.250246,-2.00133 2.808356,-3.35576 4.683977,-4.77304 2.68215,-2.17374 5.16169,-4.55023 7.277063,-7.29444 2.481514,-3.32476 4.810739,-6.77094 6.850089,-10.38608 1.87474,-3.39712 3.61714,-6.93173 3.86257,-10.87301 -0.04,-2.48919 -0.34241,-4.92922 -1.69948,-7.08146 -1.65262,-2.376215 -3.851611,-4.263265 -5.976964,-6.204793 -2.105628,-2.10457 -4.274439,-4.17701 -6.059847,-6.569027 -0.367699,-0.57305 -1.047798,-1.608976 -1.374217,-2.212178 -0.824145,-1.522963 -1.273021,-3.198188 -1.834644,-4.825833 -0.644795,-2.550184 -1.068885,-5.142511 -1.221021,-7.772824 0.169085,-2.340998 0.519102,-4.670316 1.709386,-6.740088 0.502028,-0.765561 0.963179,-1.523296 1.567717,-2.217259 1.45447,-1.66961 3.293835,-2.935845 5.077672,-4.217442 3.395202,-2.37549 6.762748,-4.80191 10.285218,-6.98618 3.76243,-2.046899 7.59516,-3.982511 11.51943,-5.700458 2.10878,-0.883923 4.21632,-1.794873 6.17249,-2.988366 0,0 -3.31199,-2.142918 -3.31199,-2.142918 z" />
    <path
       style="fill:#000000;fill-opacity:1;stroke:#000000;stroke-width:1.465"
       id="path14887"
       d="m 121.57702,123.38242 c 1.7794,-1.56833 3.67111,-3.00829 5.56158,-4.43981 1.94831,-1.54374 3.91989,-2.59616 6.3535,-3.07493 1.25407,-0.0548 1.1061,-0.14165 2.36691,0.20012 0.76206,0.20657 1.96367,0.67662 2.65254,1.01288 0.5112,0.24953 2.06551,0.83387 1.49684,0.81962 -0.60292,-0.0151 -1.07437,-0.54833 -1.61155,-0.8225 2.54794,1.7516 5.08559,3.59893 7.14634,5.92122 0.63767,0.59737 1.0152,1.41889 1.60548,2.05325 1.41555,1.52128 3.4316,2.47836 5.43411,2.9622 3.05338,0.46021 6.06011,-0.45723 9.10766,-0.43475 2.89006,0.96228 -1.00241,-0.89132 -1.62697,-1.06412 -0.25383,-0.0702 0.29501,0.44091 0.39335,0.68523 0.30119,0.7483 0.27323,1.59066 0.2774,2.37859 -0.0553,1.34084 -0.17121,2.67785 -0.23267,4.01847 0.0895,1.25984 -0.46507,2.08977 -1.33101,2.93288 -1.13388,0.72774 -2.28586,1.45295 -3.50926,2.02377 -0.4587,0.0951 -0.87535,0.23525 -1.35262,0.11885 -0.25544,-0.0623 -0.9478,-0.4535 -0.71995,-0.32229 0.84057,0.48403 1.66308,1.01452 2.56065,1.38223 0.28801,0.11799 -0.48573,-0.39247 -0.69871,-0.61944 -0.23749,-0.2531 -0.43174,-0.54356 -0.64761,-0.81534 -1.40646,-1.88793 -2.58066,-3.92467 -4.04352,-5.77226 -1.95683,-2.32473 -4.52917,-3.46303 -7.17098,-4.95247 -1.85368,-0.66223 -3.65417,-1.45824 -5.45893,-2.24064 -1.78726,-0.74017 -3.52746,-1.57216 -5.43206,-1.95888 -1.99057,-0.34904 -3.99278,-0.14575 -5.98735,0.0268 -2.05771,0.1841 -4.12314,0.45923 -6.12463,0.9805 -2.02255,0.64206 -4.03198,1.32657 -5.98105,2.1677 -1.01746,0.43462 -0.51935,0.23409 -1.49289,0.60514 0,0 3.23532,2.16961 3.23532,2.16961 v 0 c 0.96549,-0.39429 0.47269,-0.18493 1.47741,-0.63041 1.93089,-0.83578 3.92172,-1.51806 5.93646,-2.12287 1.9932,-0.48612 4.04298,-0.75211 6.0848,-0.93203 1.98386,-0.16566 3.98061,-0.32315 5.94902,0.0906 1.85845,0.44691 3.58373,1.25246 5.34332,1.98443 1.81683,0.79609 3.64813,1.55452 5.48812,2.29509 -5.83311,-3.44255 -0.39457,-0.43272 0.59184,1.00735 1.50886,1.81279 2.67271,3.84434 4.0452,5.75545 1.49334,2.13889 2.57626,2.46218 5.39174,3.96989 0.24825,0.13294 0.53605,0.18843 0.81602,0.21877 0.5374,0.0582 0.94546,-0.11196 1.4478,-0.25559 1.24291,-0.61709 2.46268,-1.32431 3.59248,-2.126 0.89809,-0.91458 1.56927,-1.84045 1.47257,-3.18791 0.0526,-1.3496 0.1548,-2.69608 0.21591,-4.04522 0.0255,-3.65802 -0.93217,-5.35417 -5.59621,-6.00258 -3.03243,0.10139 -6.07107,0.94951 -9.0979,0.30444 -1.72234,-0.55337 -1.27338,-0.47895 1.82128,1.34637 0.20686,0.12202 -0.41899,-0.24292 -0.59496,-0.40635 -0.65122,-0.60481 -0.97115,-1.51412 -1.65444,-2.0947 -2.03331,-2.40508 -4.64188,-4.24862 -7.19786,-6.05719 -2.69365,-1.62298 -6.82783,-4.71215 -10.35834,-4.85607 -0.3996,-0.0163 -0.79781,0.0572 -1.19672,0.0857 -2.45307,0.54966 -4.42239,1.689 -6.38903,3.25397 -1.91682,1.4581 -3.84268,2.90533 -5.73474,4.39422 0,0 3.37631,2.069 3.37631,2.069 z" />
    <path
       style="fill:#000000;fill-opacity:1;stroke:#000000;stroke-width:1.465"
       id="path14889"
       d="m 92.925175,115.56232 c -2.243161,-0.51906 -4.472265,-1.15618 -6.565656,-2.12235 0.711697,0.40931 -3.210949,-1.75638 -2.421234,-1.29402 0.676688,0.39618 1.338278,0.8286 2.058681,1.13825 0.426095,0.18316 -0.78231,-0.49851 -1.168353,-0.75556 -0.75978,-0.5059 -1.508739,-1.02791 -2.267759,-1.53495 -2.207985,-1.37602 -2.102385,-1.33083 -5.505106,-3.20335 -0.348295,-0.19167 -1.471576,-0.67963 -1.891991,-0.79288 -0.768366,-0.20698 -0.962242,-0.14287 -1.733642,-0.11292 -1.708838,0.30059 -3.037697,1.36928 -4.264666,2.52414 -1.596961,1.5843 -3.47718,2.62397 -5.606616,3.29262 -0.502827,0.0641 -1.002548,0.16108 -1.508482,0.19245 -1.663819,0.10313 -3.463194,0.0145 -5.11352,-0.0759 -2.622735,-0.14382 -5.230749,-0.37765 -7.837516,-0.69271 -1.303785,-0.0426 -4.706538,-1.15556 -5.780974,0.0852 -0.166047,0.19176 -0.239763,0.44708 -0.359643,0.67062 -0.456628,1.85097 -0.365543,3.77933 -0.342336,5.67078 0.145899,1.87201 1.348451,3.22285 2.481135,4.60998 0.927172,0.88175 1.714209,2.3622 2.834256,3.02609 1.312593,0.77802 2.661555,1.49297 3.992333,2.23946 0.309628,0.0565 0.614637,0.15187 0.928883,0.16953 2.384854,0.13405 5.081828,-0.48165 7.416075,-0.92607 2.680277,-0.54942 5.268105,-1.39865 7.812844,-2.38632 1.841071,-0.75249 3.462041,-1.90817 5.242489,-2.7828 2.036527,-1.04171 4.196212,-1.72299 6.450941,-2.06696 3.223254,-0.14162 6.177923,1.50246 9.061989,2.7383 1.57724,0.60868 3.062245,1.40988 4.537462,2.22679 0,0 -2.947821,-2.37519 -2.947821,-2.37519 v 0 c -1.475574,-0.79179 -2.962108,-1.5634 -4.525706,-2.17185 -2.950393,-1.26222 -5.987341,-2.89861 -9.28924,-2.63893 -2.268797,0.39522 -4.425014,1.14911 -6.488533,2.17679 -1.782107,0.85905 -3.411138,1.98834 -5.242163,2.7476 -2.502252,1.00544 -5.061948,1.84209 -7.71316,2.36682 -2.229485,0.41687 -5.135118,1.06121 -7.394292,0.74672 -0.309912,-0.0431 -0.602924,-0.16765 -0.904385,-0.25147 5.97971,3.64667 2.897518,1.87364 2.167162,1.25552 -0.891059,-0.75413 -1.607405,-1.71778 -2.385502,-2.57902 -1.079299,-1.33433 -2.32837,-2.59308 -2.576219,-4.3704 -0.04162,-1.82593 -0.141247,-3.69014 0.275154,-5.48176 0.08843,-0.1654 0.137191,-0.35919 0.265276,-0.4962 0.940692,-1.00618 4.332431,0.0191 5.44244,-0.003 2.590128,0.2704 5.182198,0.46976 7.782332,0.62176 1.606701,0.0939 3.659754,0.22966 5.301731,0.13008 0.532858,-0.0323 1.057342,-0.14817 1.586013,-0.22226 2.156519,-0.72053 4.097224,-1.80624 5.734463,-3.40774 1.191416,-1.07472 2.456193,-2.10243 4.11366,-2.27985 0.778854,0.024 0.863036,-0.0251 1.632812,0.2182 1.137399,0.35943 4.255133,2.1666 -0.358735,-0.48865 -0.395012,-0.22732 0.778814,0.47361 1.16822,0.71041 3.347834,2.22588 6.696885,4.46533 10.33427,6.20613 2.152931,0.94079 4.434449,1.57965 6.721417,2.10526 0,0 -3.148788,-2.35671 -3.148788,-2.35671 z" />
    <path
       style="fill:#000000;fill-opacity:1;stroke:#000000;stroke-width:1.465"
       id="path14891"
       d="m 74.080672,159.88177 c -2.02592,0.0611 -4.053274,-0.029 -6.075881,0.10938 -3.365177,0.3854 -4.646075,1.3711 -6.988609,3.7602 -2.952885,3.15203 -5.756423,6.41978 -8.316224,9.89801 -1.317252,1.93287 -2.269051,4.07692 -3.292994,6.17172 -0.972518,1.40563 -2.647307,1.66369 -4.230864,1.85443 -1.768229,0.15208 -3.159858,1.0873 -4.412806,2.2759 -1.169961,1.15545 -2.10485,2.46838 -2.685308,4.00665 -0.34217,2.174 0.717328,4.05835 1.93377,5.76756 1.990214,2.26889 4.887804,3.63369 7.44375,5.10481 1.50685,0.69244 3.181112,0.1976 4.654947,-0.35349 2.184149,-1.04354 3.5619,-3.03489 4.867034,-4.98697 1.272635,-2.03914 1.886257,-4.37228 2.251655,-6.72423 0.298635,-2.31569 0.881406,-3.5989 2.520621,-5.27293 1.856232,-1.48506 3.74286,-2.93857 5.668883,-4.33336 1.408473,-1.09436 3.179004,-1.25991 4.784889,-1.85545 0.974085,-0.39014 1.603899,-1.18913 2.197339,-2.01393 0,0 -3.357539,-1.98407 -3.357539,-1.98407 v 0 c -0.555697,0.76845 -1.145918,1.4836 -2.070762,1.81322 -1.654794,0.54607 -3.382602,0.88335 -4.80769,1.97572 -1.932821,1.41386 -3.811273,2.90396 -5.678228,4.4023 -1.703914,1.73039 -2.374646,3.05007 -2.684394,5.46061 -0.302334,2.31309 -0.855551,4.60484 -2.116077,6.60127 -1.279228,1.88243 -2.626807,3.81876 -4.792236,4.74533 -1.467877,0.49822 -3.033247,0.86978 -4.471575,0.0792 6.081681,3.56889 0.127685,0.18297 -0.865232,-1.12649 -1.204418,-1.58106 -2.314761,-3.33598 -2.077509,-5.40987 0.550275,-1.49063 1.459312,-2.74281 2.594002,-3.85401 1.2202,-1.14421 2.575089,-1.95172 4.281694,-2.07297 1.701874,-0.25764 3.427756,-0.64555 4.428394,-2.18447 0.97853,-2.09352 1.889096,-4.23134 3.154045,-6.17354 2.476151,-3.51667 5.246233,-6.78679 8.260908,-9.85796 2.27285,-2.17173 3.755295,-3.20195 6.932523,-3.47121 2.046557,-0.11373 4.098414,-0.049 6.147242,-0.0281 0,0 -3.197768,-2.32332 -3.197768,-2.32332 z" />
    <path
       style="fill:#000000;fill-opacity:1;stroke:#000000;stroke-width:1.465"
       id="path14893"
       d="m 104.9656,169.67317 c 1.64711,-0.12137 3.20736,0.0283 4.76323,0.58158 0.31881,0.17728 1.27734,0.70526 0.95642,0.53184 -3.06134,-1.65425 -2.96836,-1.73216 -1.52547,-0.71787 0.82101,0.57714 1.53698,1.20905 2.26202,1.9012 2.06029,2.2696 4.24436,4.42527 6.64762,6.32986 2.96876,2.39448 6.44019,4.00388 9.94327,5.43886 2.74174,1.12513 5.59796,1.94716 8.48134,2.61776 2.2346,0.42329 4.52916,0.57362 6.799,0.4499 1.87306,-0.32289 3.75019,-0.32184 2.8875,-2.73098 -0.92232,-1.75588 -2.4515,-3.0812 -3.99619,-4.28034 -2.14417,-1.58965 -4.24888,-3.35004 -6.85238,-4.1599 -1.99881,-0.19895 -4.03586,0.0766 -6.04086,0.19158 -0.41918,0.021 -1.50487,0.10592 -1.93382,0.009 -0.32517,-0.0738 -1.20927,-0.55604 -0.92377,-0.38378 4.17506,2.51906 2.24538,1.26241 1.34578,0.37031 -0.31942,-0.31676 -0.60135,-0.66921 -0.90202,-1.00382 -1.53152,-2.02182 -3.14333,-3.96462 -4.91652,-5.77821 -2.44711,-2.24434 -5.45357,-3.88566 -8.5683,-5.01882 -2.12228,-0.70229 -4.34525,-0.92709 -6.56174,-1.08655 -1.74243,-0.1184 -3.48872,-0.14721 -5.23445,-0.1673 0,0 3.13576,2.28249 3.13576,2.28249 v 0 c 1.7261,0.0105 3.45294,0.0377 5.17559,0.15671 2.21136,0.18213 4.4255,0.44987 6.52883,1.19769 1.69567,0.6557 3.52393,1.84638 -0.48714,-0.61265 -0.28873,-0.17701 0.59757,0.32055 0.88173,0.50482 0.66639,0.43217 0.97101,0.73999 1.57297,1.2682 1.80141,1.79848 3.46259,3.70837 4.96026,5.77022 2.01724,2.38555 2.70925,2.66669 6.11305,4.48959 0.30718,0.16452 0.65897,0.24004 1.00328,0.29368 0.43656,0.068 1.50925,-0.0204 1.93979,-0.0463 1.98464,-0.12642 4.04561,-0.43768 6.00519,-0.0244 1.52305,0.60388 0.71624,0.31492 -2.31285,-1.46925 -0.18382,-0.10827 0.37119,0.21127 0.54784,0.33087 0.65159,0.44115 0.54276,0.44353 1.19719,0.93972 0.23784,0.18034 0.48775,0.34419 0.73163,0.51629 1.54672,1.12804 3.05952,2.41006 4.03938,4.079 0.13206,0.25517 0.41675,0.68386 0.38048,1.01716 -0.0995,0.91469 -2.21659,0.99475 -2.83489,1.09998 -2.25295,0.07 -4.52081,-0.064 -6.73084,-0.5293 -2.86098,-0.66868 -5.69255,-1.49392 -8.40352,-2.63656 -1.14866,-0.48226 -1.6285,-0.67101 -2.73759,-1.18381 -0.36162,-0.1672 -1.40554,-0.74364 -1.0769,-0.51845 4.84859,3.32232 1.38379,0.62112 0.3819,0.0215 -2.42018,-1.85106 -4.63822,-3.95661 -6.62069,-6.27264 -2.37338,-2.36935 -5.26996,-4.11893 -8.30315,-5.55094 -1.61425,-0.49152 -3.23244,-0.60055 -4.91573,-0.54073 0,0 3.19777,2.32331 3.19777,2.32331 z" />
  </g>
</svg>
